<?xml version="1.0" ?><svg id="Layer_2" style="enable-background:new 0 0 24 24;" version="1.1" viewBox="0 0 24 24" xml:space="preserve" xmlns="http://www.w3.org/2000/svg" xmlns:xlink="http://www.w3.org/1999/xlink"><path d="M18.5,6.917h-13c-1.378,0-2.5,1.122-2.5,2.5v5.167c0,1.379,1.122,2.5,2.5,2.5h13c1.378,0,2.5-1.121,2.5-2.5V9.417  C21,8.038,19.878,6.917,18.5,6.917z M20,14.583c0,0.827-0.673,1.5-1.5,1.5h-13c-0.827,0-1.5-0.673-1.5-1.5V9.417  c0-0.827,0.673-1.5,1.5-1.5h13c0.827,0,1.5,0.673,1.5,1.5V14.583z"/><circle cx="6" cy="10.543" r="0.5"/><circle cx="7.958" cy="10.543" r="0.5"/><circle cx="9.917" cy="10.543" r="0.5"/><circle cx="11.875" cy="10.543" r="0.5"/><circle cx="13.833" cy="10.543" r="0.5"/><circle cx="15.792" cy="10.543" r="0.5"/><circle cx="17.75" cy="10.543" r="0.5"/><circle cx="6" cy="12.781" r="0.5"/><circle cx="7.958" cy="12.781" r="0.5"/><circle cx="9.917" cy="12.781" r="0.5"/><circle cx="11.875" cy="12.781" r="0.5"/><circle cx="13.833" cy="12.781" r="0.5"/><circle cx="15.792" cy="12.781" r="0.5"/><circle cx="17.75" cy="12.781" r="0.5"/><circle cx="6" cy="15.019" r="0.5"/><circle cx="7.958" cy="15.019" r="0.5"/><circle cx="9.917" cy="15.019" r="0.5"/><circle cx="11.875" cy="15.019" r="0.5"/><circle cx="13.833" cy="15.019" r="0.5"/><circle cx="15.792" cy="15.019" r="0.5"/><circle cx="17.75" cy="15.019" r="0.5"/><path d="M7.958,9.469h7.833c0.276,0,0.5-0.224,0.5-0.5s-0.224-0.5-0.5-0.5H7.958c-0.276,0-0.5,0.224-0.5,0.5  S7.682,9.469,7.958,9.469z"/></svg>